<svg xmlns="http://www.w3.org/2000/svg" viewBox="45 0 660 339" role="img" aria-label="Spillin' Tea"><path d="M 572 231 L 569 225 L 566 222 L 556 217 L 551 217 L 550 216 L 548 217 L 543 217 L 531 222 L 525 228 L 527 231 L 529 231 L 533 227 L 541 223 L 550 223 L 554 225 L 559 231 L 560 241 L 559 242 L 559 245 L 555 252 L 545 262 L 530 270 L 514 275 L 510 275 L 509 276 L 500 277 L 499 278 L 494 278 L 493 279 L 488 279 L 487 280 L 465 282 L 464 283 L 445 284 L 444 285 L 434 285 L 433 286 L 422 286 L 421 287 L 413 287 L 412 288 L 394 289 L 393 290 L 387 290 L 386 291 L 381 291 L 380 292 L 374 292 L 373 293 L 358 295 L 332 303 L 314 313 L 310 316 L 307 320 L 308 321 L 315 319 L 334 320 L 341 316 L 353 312 L 356 312 L 363 309 L 376 307 L 381 305 L 391 304 L 397 302 L 409 301 L 410 300 L 416 300 L 417 299 L 423 299 L 424 298 L 438 297 L 445 295 L 452 295 L 453 294 L 460 294 L 467 292 L 486 290 L 487 289 L 511 285 L 535 278 L 552 270 L 558 266 L 567 257 L 571 250 L 573 243 Z M 517 202 L 501 203 L 497 209 L 492 205 L 487 203 L 477 204 L 468 208 L 455 220 L 447 232 L 447 234 L 443 242 L 430 255 L 421 261 L 419 261 L 416 263 L 406 264 L 401 261 L 399 257 L 399 251 L 401 249 L 406 249 L 407 248 L 414 247 L 425 242 L 436 232 L 440 224 L 440 217 L 439 214 L 436 211 L 428 208 L 416 210 L 408 214 L 399 221 L 389 234 L 384 244 L 384 247 L 382 252 L 382 258 L 384 265 L 388 270 L 394 273 L 397 273 L 398 274 L 409 273 L 415 271 L 426 265 L 440 252 L 442 253 L 442 257 L 445 263 L 452 267 L 458 267 L 464 265 L 470 261 L 479 252 L 480 253 L 480 258 L 483 262 L 485 263 L 493 263 L 496 262 L 508 254 L 518 242 L 518 240 L 515 239 L 507 248 L 501 252 L 497 252 L 495 250 L 497 241 Z M 427 216 L 429 218 L 429 222 L 425 230 L 417 238 L 403 244 L 402 243 L 403 239 L 410 227 L 419 218 L 423 216 Z M 488 211 L 491 214 L 492 218 L 490 224 L 480 243 L 476 248 L 467 255 L 461 255 L 459 252 L 459 245 L 461 238 L 465 230 L 471 221 L 478 214 L 484 211 Z M 484 161 L 482 159 L 479 159 L 478 162 L 473 167 L 469 169 L 462 170 L 461 171 L 450 171 L 449 172 L 415 170 L 414 169 L 386 167 L 385 166 L 376 166 L 375 165 L 338 165 L 337 166 L 331 166 L 330 167 L 318 169 L 300 177 L 297 179 L 285 192 L 281 200 L 280 213 L 284 223 L 290 229 L 302 233 L 313 232 L 320 229 L 326 223 L 329 217 L 329 209 L 327 206 L 324 206 L 324 211 L 322 216 L 315 221 L 306 221 L 302 219 L 298 215 L 296 211 L 296 200 L 302 190 L 310 184 L 325 179 L 338 178 L 339 177 L 359 177 L 360 178 L 382 179 L 383 180 L 390 180 L 391 181 L 382 187 L 372 198 L 334 261 L 324 273 L 315 281 L 307 286 L 297 289 L 286 288 L 280 284 L 277 278 L 278 271 L 282 266 L 282 264 L 273 262 L 272 263 L 269 263 L 264 266 L 260 272 L 259 282 L 261 287 L 268 294 L 280 299 L 285 299 L 286 300 L 305 299 L 306 298 L 316 296 L 327 291 L 336 285 L 349 272 L 355 264 L 364 249 L 369 238 L 371 236 L 389 200 L 393 194 L 403 184 L 406 182 L 418 183 L 419 184 L 441 185 L 442 186 L 452 186 L 453 185 L 466 184 L 475 180 L 481 175 L 485 167 Z M 315 52 L 308 50 L 302 50 L 301 49 L 299 50 L 298 49 L 297 50 L 287 50 L 286 51 L 276 51 L 275 52 L 260 53 L 260 55 L 266 60 L 266 64 L 267 65 L 267 102 L 266 103 L 266 108 L 267 109 L 267 146 L 265 152 L 261 155 L 261 158 L 264 157 L 272 157 L 273 156 L 280 156 L 281 155 L 291 155 L 293 154 L 293 152 L 292 152 L 287 146 L 287 116 L 288 115 L 294 118 L 304 118 L 305 117 L 308 117 L 319 111 L 326 103 L 330 93 L 331 76 L 330 75 L 329 68 L 326 62 L 320 55 Z M 291 59 L 297 59 L 302 61 L 307 66 L 310 73 L 310 78 L 311 79 L 310 90 L 307 98 L 301 104 L 296 106 L 291 106 L 287 104 L 287 61 Z M 371 45 L 368 45 L 367 46 L 353 46 L 352 47 L 339 47 L 339 50 L 343 52 L 345 57 L 345 95 L 344 96 L 344 101 L 345 102 L 345 140 L 343 145 L 340 147 L 338 150 L 371 148 L 372 147 L 372 145 L 370 145 L 367 142 L 365 137 L 365 104 L 366 103 L 365 77 L 366 76 L 366 53 L 367 51 L 372 47 Z M 419 43 L 388 44 L 386 45 L 386 47 L 389 48 L 392 53 L 392 92 L 391 93 L 392 96 L 392 135 L 390 141 L 385 145 L 385 147 L 389 147 L 390 146 L 406 146 L 407 145 L 442 144 L 442 141 L 443 140 L 444 117 L 441 117 L 440 118 L 437 126 L 430 132 L 427 132 L 426 133 L 413 133 L 412 132 L 413 52 L 414 49 L 419 45 Z M 571 41 L 570 43 L 576 48 L 576 51 L 577 52 L 576 133 L 574 139 L 569 143 L 569 145 L 590 145 L 591 146 L 596 146 L 596 144 L 590 139 L 590 136 L 589 135 L 590 76 L 591 75 L 593 77 L 595 84 L 608 112 L 610 119 L 613 124 L 613 126 L 621 144 L 621 147 L 622 148 L 633 148 L 634 149 L 643 149 L 645 150 L 646 148 L 641 142 L 642 72 L 643 71 L 643 53 L 645 49 L 650 46 L 650 44 L 622 43 L 622 45 L 628 50 L 628 53 L 629 54 L 628 104 L 627 105 L 615 79 L 608 60 L 605 55 L 601 42 L 573 42 Z M 523 41 L 523 43 L 528 47 L 529 50 L 529 89 L 528 90 L 529 106 L 528 107 L 528 135 L 527 137 L 522 141 L 522 143 L 524 144 L 525 143 L 532 143 L 533 144 L 555 144 L 555 142 L 554 142 L 549 136 L 549 96 L 550 95 L 550 91 L 549 90 L 549 71 L 550 70 L 550 50 L 552 46 L 556 43 L 556 41 Z M 455 42 L 454 44 L 459 47 L 461 53 L 461 86 L 460 87 L 460 134 L 458 139 L 454 141 L 454 144 L 462 144 L 463 143 L 510 143 L 512 116 L 509 116 L 508 117 L 508 119 L 505 125 L 500 130 L 497 130 L 496 131 L 482 131 L 480 129 L 480 117 L 481 116 L 481 53 L 483 47 L 488 43 L 488 41 L 481 41 L 480 42 L 479 41 L 477 42 Z M 676 40 L 670 41 L 665 47 L 665 54 L 666 56 L 671 60 L 671 65 L 667 71 L 664 73 L 665 76 L 669 75 L 676 69 L 680 63 L 683 55 L 683 47 L 682 44 Z M 242 20 L 235 25 L 231 26 L 230 25 L 227 25 L 217 17 L 202 11 L 195 11 L 194 10 L 178 11 L 163 17 L 150 29 L 144 40 L 142 47 L 142 53 L 141 54 L 141 60 L 142 61 L 143 71 L 148 82 L 155 92 L 180 116 L 207 145 L 214 154 L 221 167 L 225 181 L 225 203 L 224 204 L 224 208 L 221 218 L 215 230 L 203 245 L 194 252 L 184 257 L 174 259 L 173 260 L 157 260 L 143 255 L 134 247 L 128 236 L 128 232 L 127 231 L 127 219 L 128 218 L 128 214 L 131 208 L 137 202 L 144 206 L 154 206 L 159 203 L 163 196 L 163 187 L 161 183 L 155 177 L 149 175 L 140 175 L 132 178 L 122 187 L 114 202 L 114 205 L 112 210 L 111 223 L 112 224 L 113 235 L 116 243 L 124 254 L 122 255 L 118 251 L 113 248 L 100 235 L 91 219 L 88 210 L 87 198 L 86 197 L 86 186 L 87 185 L 87 180 L 88 179 L 89 172 L 94 160 L 98 154 L 112 141 L 126 135 L 132 135 L 133 134 L 146 135 L 160 141 L 168 148 L 173 155 L 176 161 L 178 168 L 178 172 L 179 173 L 179 186 L 178 187 L 177 195 L 174 202 L 167 210 L 159 214 L 151 214 L 150 215 L 151 218 L 156 220 L 164 221 L 165 220 L 173 219 L 180 215 L 186 210 L 191 203 L 195 194 L 196 185 L 197 184 L 196 168 L 192 156 L 186 146 L 173 134 L 158 126 L 152 124 L 142 123 L 141 122 L 126 122 L 125 123 L 120 123 L 119 124 L 112 125 L 104 129 L 102 129 L 91 136 L 79 148 L 70 164 L 66 177 L 66 184 L 65 185 L 66 207 L 70 220 L 75 230 L 83 241 L 90 248 L 106 259 L 119 265 L 122 265 L 129 268 L 145 270 L 151 272 L 177 272 L 178 271 L 183 271 L 203 265 L 215 259 L 224 253 L 238 240 L 249 224 L 256 206 L 257 197 L 258 196 L 258 188 L 259 187 L 258 169 L 252 148 L 245 135 L 232 119 L 198 89 L 176 67 L 173 63 L 168 52 L 168 39 L 174 29 L 178 26 L 188 22 L 201 23 L 211 28 L 216 33 L 220 39 L 222 46 L 221 57 L 216 64 L 211 66 L 211 68 L 216 71 L 225 71 L 228 70 L 235 65 L 240 55 L 242 36 L 244 32 L 244 29 L 246 26 L 246 21 Z M 192 110 L 194 109 L 203 117 L 202 118 L 199 117 Z M 178 97 L 180 96 L 187 101 L 193 109 L 191 110 Z" fill="#111" fill-rule="evenodd"/></svg>